<?xml version="1.0" encoding="UTF-8"?>
<svg width="386px" height="386px" viewBox="0 0 386 386" version="1.1" xmlns="http://www.w3.org/2000/svg" xmlns:xlink="http://www.w3.org/1999/xlink">
    <!-- Generator: Sketch 59.1 (86144) - https://sketch.com -->
    <title>Meet-Dotdot</title>
    <desc>Created with Sketch.</desc>
    <defs>
        <polygon id="path-1" points="0.478013235 0.491478261 52.7770785 0.491478261 52.7770785 53.74035 0.478013235 53.74035"></polygon>
        <polygon id="path-3" points="0.39175671 0.491478261 52.690822 0.491478261 52.690822 53.74035 0.39175671 53.74035"></polygon>
        <polygon id="path-5" points="0.710659898 175 211.71066 175 211.71066 0 0.710659898 0"></polygon>
    </defs>
    <g id="2.0---Solutions" stroke="none" stroke-width="1" fill="none" fill-rule="evenodd">
        <g id="zigbee-02-solutions-dotdot-dr2" transform="translate(-768.000000, -597.000000)">
            <g id="Intro" transform="translate(288.000000, 597.000000)">
                <g id="Meet-Dotdot" transform="translate(480.000000, 0.000000)">
                    <rect id="Rectangle" fill="#F8F8F8" x="0" y="0" width="386" height="386"></rect>
                    <g id="Group-10" transform="translate(87.000000, 106.000000)">
                        <g id="Group-3" transform="translate(25.710660, 0.000000)">
                            <mask id="mask-2" fill="white">
                                <use xlink:href="#path-1"></use>
                            </mask>
                            <g id="Clip-2"></g>
                            <path d="M8.05243419,8.21707826 C13.1091603,3.07005652 19.2967154,0.489306522 26.6293239,0.489306522 C33.9583763,0.489306522 40.1494875,3.07005652 45.1991015,8.21707826 C50.2558276,13.3460022 52.7770785,19.6585239 52.7770785,27.1220674 C52.7770785,34.567513 50.2558276,40.8800348 45.1991015,46.0270565 C40.1494875,51.1559804 33.9583763,53.74035 26.6293239,53.74035 C19.2967154,53.74035 13.1091603,51.1559804 8.05243419,46.0270565 C3.00637629,40.8800348 0.478013235,34.567513 0.478013235,27.1220674 C0.478013235,19.6585239 3.00637629,13.3460022 8.05243419,8.21707826" id="Fill-1" fill="#000000" mask="url(#mask-2)"></path>
                        </g>
                        <g id="Group-6" transform="translate(132.710660, 0.000000)">
                            <mask id="mask-4" fill="white">
                                <use xlink:href="#path-3"></use>
                            </mask>
                            <g id="Clip-5"></g>
                            <path d="M7.96617767,8.21707826 C13.0229038,3.07005652 19.2069028,0.489306522 26.5430674,0.489306522 C33.8721198,0.489306522 40.063231,3.07005652 45.1128449,8.21707826 C50.169571,13.3460022 52.690822,19.6585239 52.690822,27.1220674 C52.690822,34.567513 50.169571,40.8800348 45.1128449,46.0270565 C40.063231,51.1559804 33.8721198,53.74035 26.5430674,53.74035 C19.2069028,53.74035 13.0229038,51.1559804 7.96617767,46.0270565 C2.92011976,40.8800348 0.39175671,34.567513 0.39175671,27.1220674 C0.39175671,19.6585239 2.92011976,13.3460022 7.96617767,8.21707826" id="Fill-4" fill="#000000" mask="url(#mask-4)"></path>
                        </g>
                        <mask id="mask-6" fill="white">
                            <use xlink:href="#path-5"></use>
                        </mask>
                        <g id="Clip-8"></g>
                        <polygon id="Fill-7" fill="#000000" mask="url(#mask-6)" points="0.710659898 113 211.71066 113 211.71066 77 0.710659898 77"></polygon>
                        <polygon id="Fill-9" fill="#000000" mask="url(#mask-6)" points="0.710659898 175 211.71066 175 211.71066 139 0.710659898 139"></polygon>
                    </g>
                </g>
            </g>
        </g>
    </g>
</svg>